<svg width="252" height="97" viewBox="0 0 252 97" fill="none" xmlns="http://www.w3.org/2000/svg">
<path d="M194.75 50C194.75 64.2213 183.221 75.75 169 75.75C154.779 75.75 143.25 64.2213 143.25 50C143.25 35.7787 154.779 24.25 169 24.25C183.221 24.25 194.75 35.7787 194.75 50Z" fill="#113049" stroke="#ED9F33" stroke-width="2.5"/>
<path fill-rule="evenodd" clip-rule="evenodd" d="M226.584 63.5039C227.105 63.6667 227.626 63.7806 228.146 63.8457C228.667 63.8783 229.188 63.8945 229.709 63.8945C231.011 63.8945 232.264 63.7155 233.469 63.3574C234.673 62.9993 235.796 62.4948 236.838 61.8438C237.912 61.1602 238.856 60.3464 239.67 59.4023C240.516 58.4258 241.2 57.3516 241.721 56.1797L251.486 65.9941C250.249 67.752 248.817 69.3307 247.189 70.7305C245.594 72.1302 243.853 73.3184 241.965 74.2949C240.109 75.2715 238.14 76.0039 236.057 76.4922C234.006 77.013 231.89 77.2734 229.709 77.2734C226.031 77.2734 222.564 76.5898 219.309 75.2227C216.086 73.8555 213.254 71.9512 210.812 69.5098C208.404 67.0684 206.499 64.1712 205.1 60.8184C203.7 57.4329 203 53.722 203 49.6855C203 45.5514 203.7 41.7754 205.1 38.3574C206.499 34.9395 208.404 32.026 210.812 29.6172C213.254 27.2083 216.086 25.3366 219.309 24.002C222.564 22.6673 226.031 22 229.709 22C231.89 22 234.022 22.2604 236.105 22.7812C238.189 23.3021 240.158 24.0508 242.014 25.0273C243.902 26.0039 245.66 27.2083 247.287 28.6406C248.915 30.0404 250.347 31.6191 251.584 33.377L226.584 63.5039ZM233.42 36.0137C232.801 35.7858 232.183 35.6393 231.564 35.5742C230.979 35.5091 230.36 35.4766 229.709 35.4766C227.886 35.4766 226.161 35.8184 224.533 36.502C222.938 37.153 221.538 38.097 220.334 39.334C219.162 40.571 218.234 42.0684 217.551 43.8262C216.867 45.5514 216.525 47.5046 216.525 49.6855C216.525 50.1738 216.542 50.7272 216.574 51.3457C216.639 51.9642 216.721 52.599 216.818 53.25C216.949 53.8685 217.095 54.4707 217.258 55.0566C217.421 55.6426 217.632 56.1634 217.893 56.6191L233.42 36.0137Z" fill="#113049"/>
<path fill-rule="evenodd" clip-rule="evenodd" d="M83.0996 38.3574C81.6999 41.7428 81 45.4863 81 49.5879C81 53.5918 81.6999 57.2702 83.0996 60.623C84.4993 64.0085 86.4036 66.9382 88.8125 69.4121C91.2214 71.8861 94.0534 73.8066 97.3086 75.1738C100.531 76.5736 103.998 77.2734 107.709 77.2734C108.913 77.2734 110.15 77.1432 111.42 76.8828C112.689 76.6549 113.926 76.3132 115.131 75.8574C116.303 75.4017 117.41 74.8158 118.451 74.0996C119.46 73.3835 120.323 72.5697 121.039 71.6582V96.0723H134.418V49.5879C134.418 45.5514 133.718 41.8405 132.318 38.4551C130.919 35.1022 129.014 32.2051 126.605 29.7637C124.164 27.3223 121.332 25.418 118.109 24.0508C114.854 22.6836 111.387 22 107.709 22C103.998 22 100.531 22.6673 97.3086 24.002C94.0534 25.3366 91.2214 27.2083 88.8125 29.6172C86.4036 32.0586 84.4993 34.972 83.0996 38.3574ZM95.502 55.2031C94.7858 53.4779 94.4277 51.6061 94.4277 49.5879C94.4277 47.5697 94.7858 45.6979 95.502 43.9727C96.1855 42.2474 97.1296 40.75 98.334 39.4805C99.5384 38.2109 100.954 37.2018 102.582 36.4531C104.177 35.737 105.886 35.3789 107.709 35.3789C109.532 35.3789 111.257 35.737 112.885 36.4531C114.48 37.2018 115.88 38.2109 117.084 39.4805C118.288 40.75 119.232 42.2474 119.916 43.9727C120.6 45.6979 120.941 47.5697 120.941 49.5879C120.941 51.4108 120.6 53.1686 119.916 54.8613C119.232 56.5866 118.288 58.1003 117.084 59.4023C115.88 60.737 114.48 61.7949 112.885 62.5762C111.257 63.39 109.532 63.7969 107.709 63.7969C105.886 63.7969 104.177 63.4388 102.582 62.7227C100.954 62.0065 99.5384 61.0137 98.334 59.7441C97.1296 58.4746 96.1855 56.9609 95.502 55.2031Z" fill="#113049"/>
<path fill-rule="evenodd" clip-rule="evenodd" d="M51.3223 59.6191C52.722 56.2337 53.4219 52.4902 53.4219 48.3887C53.4219 44.3848 52.722 40.7064 51.3223 37.3535C49.9225 33.9681 48.0182 31.0384 45.6094 28.5645C43.2005 26.0905 40.3685 24.1699 37.1133 22.8027C33.8906 21.403 30.4238 20.7031 26.7129 20.7031C25.5085 20.7031 24.2715 20.8333 23.002 21.0938C21.7324 21.3216 20.4954 21.6634 19.291 22.1191C18.1191 22.5749 17.0124 23.1608 15.9707 23.877C14.9616 24.5931 14.099 25.4069 13.3828 26.3184V1.9043H0.00390625V48.3887C0.00390625 52.4251 0.703776 56.1361 2.10352 59.5215C3.50326 62.8743 5.40755 65.7715 7.81641 68.2129C10.2578 70.6543 13.0898 72.5586 16.3125 73.9258C19.5677 75.293 23.0345 75.9766 26.7129 75.9766C30.4238 75.9766 33.8906 75.3092 37.1133 73.9746C40.3685 72.64 43.2005 70.7682 45.6094 68.3594C48.0182 65.918 49.9225 63.0046 51.3223 59.6191ZM38.9199 42.7734C39.6361 44.4987 39.9941 46.3704 39.9941 48.3887C39.9941 50.4069 39.6361 52.2786 38.9199 54.0039C38.2363 55.7292 37.2923 57.2266 36.0879 58.4961C34.8835 59.7656 33.4674 60.7747 31.8398 61.5234C30.2448 62.2396 28.5358 62.5977 26.7129 62.5977C24.89 62.5977 23.1647 62.2396 21.5371 61.5234C19.9421 60.7747 18.5423 59.7656 17.3379 58.4961C16.1335 57.2266 15.1895 55.7292 14.5059 54.0039C13.8223 52.2786 13.4805 50.4069 13.4805 48.3887C13.4805 46.5658 13.8223 44.8079 14.5059 43.1152C15.1895 41.39 16.1335 39.8763 17.3379 38.5742C18.5423 37.2396 19.9421 36.1816 21.5371 35.4004C23.1647 34.5866 24.89 34.1797 26.7129 34.1797C28.5358 34.1797 30.2448 34.5378 31.8398 35.2539C33.4674 35.9701 34.8835 36.9629 36.0879 38.2324C37.2923 39.502 38.2363 41.0156 38.9199 42.7734Z" fill="#113049"/>
<path fill-rule="evenodd" clip-rule="evenodd" d="M75.5664 9.49609C75.5664 10.7331 75.3223 11.8887 74.834 12.9629C74.3783 14.0371 73.7435 14.9811 72.9297 15.7949C72.1159 16.5762 71.1556 17.2109 70.0488 17.6992C68.9746 18.1549 67.819 18.3828 66.582 18.3828C65.3451 18.3828 64.1732 18.1549 63.0664 17.6992C61.9922 17.2109 61.0482 16.5762 60.2344 15.7949C59.4531 14.9811 58.8184 14.0371 58.3301 12.9629C57.8743 11.8887 57.6465 10.7331 57.6465 9.49609C57.6465 8.29167 57.8743 7.15234 58.3301 6.07812C58.8184 4.97135 59.4531 4.02734 60.2344 3.24609C61.0482 2.43229 61.9922 1.79753 63.0664 1.3418C64.1732 0.853516 65.3451 0.609375 66.582 0.609375C67.819 0.609375 68.9746 0.853516 70.0488 1.3418C71.1556 1.79753 72.1159 2.43229 72.9297 3.24609C73.7435 4.02734 74.3783 4.97135 74.834 6.07812C75.3223 7.15234 75.5664 8.29167 75.5664 9.49609ZM73.2715 76H59.8438V23.7051H73.2715V76Z" fill="#113049"/>
<circle cx="177" cy="40" r="4" fill="#ED9F33"/>
</svg>
