<svg width="12988" height="6091" viewBox="0 0 12988 6091" fill="none" xmlns="http://www.w3.org/2000/svg">
<path d="M0.496211 5840.01L12987.9 5840.02" stroke="#113049" stroke-width="500"/>
<rect x="579.219" y="2672" width="28.183" height="142.191" fill="#113049"/>
<rect x="545" y="2706.06" width="96.1241" height="30.2764" fill="#113049"/>
<path d="M9895.83 1398.86L10040.6 1139.16L9928.09 1432.6L9799.43 1599.97V1926.71L9835.72 2029.26L9967.68 2312.5L10126.4 2496.29H10217.3L10370.9 2560.66L10470.2 2746.23L10592.3 2843.01L10791.3 2915.37L10978.7 2923.81L11169.3 3065.87L11275.2 3238.56L11350 3398.83V3423.69L11275.2 3398.83C11216.3 3303.67 11240.9 3310.75 11219.5 3274.52C11198.1 3238.3 11146.3 3155.54 11123.1 3118.7C11073 3077.56 10967.4 2995.28 10946 2995.28H10801.6L10565.5 2898.06L10431.7 2781.3L10335.3 2599.28L10217.3 2560.66H10126.4L9928.09 2346.24L9799.43 2060.78L9751.04 1950.24V1599.97L9895.83 1398.86Z" fill="#113049"/>
<path d="M3144.38 1730.05L2691.14 2012.84L3186.88 1818.83H3429.8L4065.88 1422.39L4305.87 1356.25L5345.05 687.223L6101.38 629.067L6243.51 534.951L6721.92 613.529L6864.05 700.986L7539.59 756.035L8086.11 613.529L8459.02 393.333L8608.51 361.369L8798.86 235.29L9091.58 161.595L9188.02 83.9052L10217.6 94.5598L10392.3 202.882L10702.8 304.101L10886.4 469.247L11004.4 645.937L11210.7 730.73L11328 868.352L11548.1 982.889L11675.7 1124.51L12027.6 1219.07L12228.6 1331.83L12438.4 1579.55L12676.9 1765.56L12830.2 1868.11L12987 1915.17L12850.3 1797.97L12643.3 1630.6L12459 1463.24L12242.5 1219.07L12041.3 1124.51L11703.9 1022.4L11548.1 880.782L11347 747.156L11210.7 597.547L11029 526.96L10938.1 393.333L10724.1 212.205L10399.5 94.5598L10250.4 0H9147.12L9069.08 55.0489L8783.65 141.618L8608.51 267.254L8459.02 314.755L8056.71 526.96L7524.7 676.125L6901.82 629.067L6758.92 534.951L6207.49 440.391L6071.19 534.951L5331.43 582.009L4305.87 1266.12L4065.88 1313.18L3429.8 1682.54L3144.38 1730.05Z" fill="#113049"/>
<path d="M12601.9 1429.83L12443.9 1497.86L12601.9 1485.05L12800.6 1475.78L12986.2 1497.86V1429.83L12800.6 1408.19L12601.9 1429.83Z" fill="#113049"/>
<path d="M359.763 1654.58L0 1967.56L397.864 1708.3L645.522 1627.05H1282.25H1973.93L2113.88 1708.3L2252.37 1747.36L2423.09 1889.42L2523.47 1967.56L2657.56 2036.81L2878.1 2113.17L2739.62 1967.56L2573.66 1867.23L2287.54 1654.58L1973.93 1543.15H1282.25H645.522L359.763 1654.58Z" fill="#113049"/>
<path d="M802.152 2393.94L850.417 2208.2L935.469 2012.84L898.093 2200L850.417 2380.75L923.991 2543.68L862.483 2719.44V2840.29L821.576 3032.09L862.483 3125.14L980.202 3180.76L1107.93 3286.28L1215.35 3447.43L1409.88 3528L1501.99 3602.15L1409.88 3581.47L1193.27 3492.7L1107.93 3346.18L980.202 3238.16L850.417 3180.76L785.083 3043.5L830.405 2719.44L768.014 2773.27L584.666 2855.27L455.469 2959.72L308.909 3060.97L136.156 3218.19L279.479 3032.09L427.805 2926.92L576.131 2809.28L750.061 2740.83L830.405 2673.09L883.084 2555.09L802.152 2393.94Z" fill="#113049"/>
<path d="M5656.83 1457.21L5850.12 1414.4L5664.75 1476.65L5443.07 1727.15L5271.08 1917.24L4954.4 2019.26L4682.76 2241.83L4482.92 2312.58L4332.23 2369.97L4148.77 2524.53L3982.78 2702.77L3838.36 2783.84L3689.03 2941.74L3549.53 3040.12H3488.92L3510.76 3012.79L3671.83 2905.3L3820.07 2754.69L3968.31 2668.76L4122.83 2496.59L4316.39 2332.02L4464.63 2281.61L4657.92 2209.95L4954.4 1980.7L5250.88 1887.48L5411.95 1715.31L5656.83 1457.21Z" fill="#113049"/>
<path d="M2079.01 3850.32L1856.98 4154.42L2093.3 3907.59L2340.25 3743.77L2576.21 3595.94L2798.98 3357.98L3079.28 3194.17L3288.86 3065.43L3600.66 3097.83L3818.3 3341.56L3987.58 3687.83L4208.51 3962.63L4400.87 4236.1L4485.51 4294.7L4444.11 4195.26L4251.38 3926.23L4012.86 3631.9L3845.41 3307.37L3610.92 3049L3288.86 3013.48L3079.28 3135.12L2782.13 3307.37L2556.06 3540.89L2325.96 3682.95L2079.01 3850.32Z" fill="#113049"/>
<path d="M8632.41 1350.47L8872.04 1139.16L8812.68 1241.26L8664.29 1387.76L8357.23 1532.49L8072.16 1740.7L7888.22 1913.84L7556.25 2288.52L7216.59 2692.96L6923.83 3055.21L6595.89 3369.08L6259.15 3661.2L5871.86 3844.54L5610.6 4096.26L5385.26 4254.75L5319.67 4387.04V4254.75L5523.4 4096.26L5835.58 3805.92L6213.35 3621.24L6562.18 3330.46L6896.34 3013.93L7179.58 2661.88L7521.08 2257L7847.92 1887.2L8051.28 1702.52L8312.9 1508.96L8632.41 1350.47Z" fill="#113049"/>
<path d="M7681.82 2416.9L7608.78 2238.53L7631.67 2186.29L7722.95 2380.03L7979.16 2608.56L8094.21 2822.59L8060.85 3125.69L8038.6 3233.37L8057.58 3357.15L8106.45 3454.03L8242.2 3608.03L8252.99 3730.65L8281.95 3790.77L8329.99 3870.15L8387.27 3969.17L8378.1 4091.38L8414.68 4186.53L8520.31 4233.96L8530.73 4281.86L8559.86 4367.88L8506.27 4336.04L8479.49 4279.07L8368.47 4225.13L8330.09 4114.83L8327.32 3967.43L8273.37 3883.71L8230.99 3802.98L8201.09 3765.95L8193.9 3732.86L8197.8 3650.36L8115.83 3547.38L8009.94 3402.85L7976.32 3248.29L7746.55 3476.86L7569.49 3792.56L7498.2 3992L7255.1 4241.43L7084.79 4478.62L7052.55 4540.37L7037.62 4471.73L7207.05 4214.49L7448.41 3963.92L7515.44 3772.26L7601.13 3631.71L7697.13 3448.18L7825.75 3304.62L7955.16 3151.01L8014 2841.81L7906.5 2625.97L7681.82 2416.9Z" fill="#113049"/>
<path d="M12192.6 4583.67L12250.1 4720L12192.6 4676.48L12128.2 4542.81L12062.2 4421.58L11995.2 4285.69L11912.8 4160.45L11814.6 4045.88L11698.8 3911.76L11598.8 3757.22L11443.1 3572.93L11354.1 3443.7L11224.1 3385.97L11100.3 3443.7L10934 3597.35L10843.1 3697.27L10744.2 3849.15L10624.1 4009.02L10521.1 4139.14L10423 4288.79L10335.4 4366.51L10254.8 4496.18L10208.7 4608.98L10085.2 4693.36L10180.1 4578.78L10223.7 4477.53L10303.5 4345.19L10405.4 4252.38L10496.6 4115.6L10594.8 3996.59L10718.6 3828.72L10820.4 3679.06L10914.9 3572.93L11086 3409.95L11224.1 3348.22L11366.2 3409.95L11487.5 3561.38L11598.8 3697.27L11722.6 3886.9L11794.1 3971.72L11898.1 4085.85L11977.6 4188.87L12062.2 4334.98L12128.2 4481.08L12192.6 4583.67Z" fill="#113049"/>
<rect x="1840.24" y="1130.86" width="169.552" height="415.602" fill="#113049"/>
<ellipse cx="1925.02" cy="1129.29" rx="84.776" ry="19.8527" fill="#113049"/>
<rect x="1906.25" y="1170.04" width="103.545" height="17.2405" fill="#F5F5F5"/>
<rect x="1906.25" y="1199.56" width="103.545" height="17.2406" fill="#F5F5F5"/>
<rect x="1906.25" y="1229.08" width="103.545" height="17.2406" fill="#F5F5F5"/>
<rect x="1906.25" y="1258.59" width="103.545" height="17.2406" fill="#F5F5F5"/>
<rect x="1906.25" y="1288.11" width="103.545" height="17.2405" fill="#F5F5F5"/>
<rect x="1906.25" y="1317.63" width="103.545" height="17.2406" fill="#F5F5F5"/>
<rect x="1906.25" y="1347.15" width="103.545" height="17.2405" fill="#F5F5F5"/>
<rect x="1906.25" y="1376.66" width="103.545" height="17.2406" fill="#F5F5F5"/>
<rect x="1906.25" y="1406.19" width="103.545" height="17.2405" fill="#F5F5F5"/>
<rect x="1906.25" y="1435.7" width="103.545" height="17.2406" fill="#F5F5F5"/>
<rect x="1906.25" y="1465.22" width="103.545" height="17.2405" fill="#F5F5F5"/>
<rect x="1906.25" y="1494.73" width="103.545" height="17.2406" fill="#F5F5F5"/>
<path d="M11170.9 4522.62V5621.46H12113.2V4322.39C12011.6 4024.15 11622.3 4025.29 11487.6 4038.16V4205.51C11262.6 4205.51 11170.9 4414.99 11170.9 4522.62Z" fill="#113049"/>
<rect x="11511.1" y="4082.44" width="226.49" height="28.8357" fill="white"/>
<rect x="11511.1" y="4128.78" width="362.776" height="28.8357" fill="white"/>
<rect x="11511.1" y="4175.12" width="473.569" height="28.8357" fill="white"/>
<rect x="11511.1" y="4221.47" width="518.672" height="28.8357" fill="white"/>
<rect x="11511.1" y="4267.81" width="563.773" height="28.8357" fill="white"/>
<rect x="11511.1" y="4314.16" width="563.773" height="28.8357" fill="white"/>
<rect x="11511.1" y="4314.16" width="581.422" height="28.8357" fill="white"/>
<rect x="11511.1" y="4360.5" width="581.422" height="28.8357" fill="white"/>
<rect x="11511.1" y="4406.84" width="581.422" height="28.8357" fill="white"/>
<rect x="11511.1" y="4453.19" width="581.422" height="28.8357" fill="white"/>
<rect x="11511.1" y="4499.53" width="581.422" height="28.8357" fill="white"/>
<rect x="11511.1" y="4545.88" width="581.422" height="28.8357" fill="white"/>
<rect x="11511.1" y="4592.22" width="581.422" height="28.8357" fill="white"/>
<rect x="11511.1" y="4638.56" width="581.422" height="28.8357" fill="white"/>
<rect x="11511.1" y="4684.91" width="581.422" height="28.8357" fill="white"/>
<rect x="11511.1" y="4731.25" width="581.422" height="28.8357" fill="white"/>
<rect x="11511.1" y="4777.59" width="581.422" height="28.8357" fill="white"/>
<rect x="11511.1" y="4823.93" width="581.422" height="28.8357" fill="white"/>
<rect x="11511.1" y="4870.27" width="581.422" height="28.8357" fill="white"/>
<rect x="11511.1" y="4916.62" width="581.422" height="28.8357" fill="white"/>
<rect x="11511.1" y="4962.96" width="581.422" height="28.8357" fill="white"/>
<rect x="11511.1" y="5009.3" width="581.422" height="28.8357" fill="white"/>
<rect x="11511.1" y="5055.65" width="581.422" height="28.8357" fill="white"/>
<rect x="11511.1" y="5101.99" width="581.422" height="28.8357" fill="white"/>
<path d="M8691.85 4200.59V5621.12H8874.73V4200.59H8691.85Z" fill="#113049" stroke="#113049" stroke-width="8"/>
<ellipse cx="8783.29" cy="4201.17" rx="91.4395" ry="36.8072" fill="#113049"/>
<rect x="8972.66" y="4738.86" width="783.508" height="882.928" fill="#113049"/>
<ellipse cx="9364.41" cy="4740.04" rx="391.754" ry="31.9559" fill="#113049"/>
<rect x="9967.25" y="4738.86" width="783.508" height="882.928" fill="#113049"/>
<ellipse cx="10359" cy="4740.04" rx="391.754" ry="31.9559" fill="#113049"/>
<rect x="9756.16" y="5514.48" width="32.3018" height="107.309" fill="#113049"/>
<rect x="9934.95" y="5514.48" width="32.3018" height="107.309" fill="#113049"/>
<rect x="9756.16" y="5514.48" width="211.089" height="31.5613" fill="#113049"/>
<rect x="12210.6" y="4803.98" width="670.166" height="817.446" fill="#113049"/>
<rect x="12393.5" y="5003.67" width="268.654" height="371.991" fill="white"/>
<rect x="12365.8" y="5539.28" width="323.913" height="82.1455" fill="white"/>
<rect x="12459.3" y="5505.23" width="137.561" height="89.4917" fill="white"/>
<path d="M10852.5 5606.11C10841.4 5584.88 10867.2 5565.56 10891.1 5565.56C10912.6 5565.56 10938.5 5565.56 10958.9 5565.56C10981.5 5565.56 11010.8 5565.56 11033.3 5565.56C11054.2 5565.56 11076.7 5579.03 11072.9 5599.51C11072.1 5603.39 11070.6 5606.79 11068 5609.16C11055.7 5620.07 10867.4 5630.96 10853.2 5607.4C10853 5606.98 10852.7 5606.55 10852.5 5606.11Z" fill="#113049"/>
<path d="M10877.8 5550.15C10867.9 5533.89 10888.9 5518.08 10908 5518.08C10924.3 5518.08 10943.9 5518.08 10959.4 5518.08C10974.3 5518.08 10993 5518.08 11008.9 5518.08C11029.7 5518.08 11058.7 5536.68 11043.8 5551.19C11043.7 5551.29 11043.6 5551.4 11043.5 5551.5C11034 5559.86 10888.8 5568.22 10877.8 5550.15V5550.15Z" fill="#113049"/>
<path d="M10905.8 5501.75C10899.2 5491.18 10913 5480.84 10925.4 5480.84C10936.3 5480.84 10949.5 5480.84 10959.9 5480.84C10969.8 5480.84 10982.2 5480.84 10992.8 5480.84C11006.6 5480.84 11026.1 5493.6 11015.7 5502.64V5502.64C11009.4 5508.09 10913 5513.54 10905.8 5501.75V5501.75Z" fill="#113049"/>
<rect x="10931.6" y="4857.98" width="57.6152" height="622.857" fill="#113049"/>
<path d="M10960.4 4817.02L10989.2 4858.21H10931.6L10960.4 4817.02Z" fill="#113049"/>
<path d="M10885.3 5550.66L10872.2 5569.28H11049.5L11030.2 5550.66H10885.3Z" fill="#113049"/>
<path d="M10911.7 5505.05L10903.2 5518.08H11018.4L11005.9 5505.05H10911.7Z" fill="#113049"/>
<path d="M3657.62 2992.2L3671.43 3431.81L3648.41 3418.91L3657.62 2992.2Z" fill="#113049"/>
<path d="M3188.94 5617.49V3461.9L3342.43 3388.81H3624.36L3763.02 3489.85V5617.49H3188.94Z" fill="#113049"/>
<path d="M4667.44 5621.23V3465.64L4820.93 3392.55H5102.86L5241.52 3493.58V5621.23H4667.44Z" fill="#113049"/>
<path d="M4570.46 4169.95V5618.14H3860.23V4169.95H4315.38H4360.11H4570.46Z" fill="#113049"/>
<rect x="3929.13" y="4424.55" width="573.023" height="16.5072" fill="white"/>
<rect x="3930.34" y="4452.48" width="573.023" height="16.5072" fill="white"/>
<rect x="3930.34" y="4480.41" width="573.023" height="16.5072" fill="white"/>
<rect x="3930.34" y="4508.35" width="573.023" height="16.5072" fill="white"/>
<rect x="3930.34" y="4536.29" width="573.023" height="16.5072" fill="white"/>
<rect x="3931.55" y="4564.22" width="573.023" height="16.5072" fill="white"/>
<rect x="3931.55" y="4592.16" width="573.023" height="16.5072" fill="white"/>
<rect x="3931.55" y="4620.09" width="573.023" height="16.5072" fill="white"/>
<rect x="3931.73" y="4648.48" width="572.61" height="27.9308" fill="#113049"/>
<rect x="3932.76" y="4675.96" width="573.023" height="16.5072" fill="white"/>
<rect x="3932.76" y="4675.96" width="573.023" height="44.4425" fill="#113049"/>
<rect x="3932.76" y="4731.84" width="573.023" height="16.5072" fill="white"/>
<rect x="3932.76" y="4759.77" width="573.023" height="16.5072" fill="white"/>
<rect x="3933.97" y="4787.7" width="573.023" height="16.5072" fill="white"/>
<rect x="3933.97" y="4815.64" width="573.023" height="16.5072" fill="white"/>
<rect x="3933.97" y="4843.57" width="573.023" height="16.5072" fill="white"/>
<rect x="3933.97" y="4871.51" width="573.023" height="16.5072" fill="white"/>
<rect x="3935.18" y="4899.45" width="573.023" height="16.5072" fill="white"/>
<rect x="3935.18" y="4927.38" width="573.023" height="16.5072" fill="white"/>
<rect x="3935.18" y="4955.31" width="573.023" height="16.5072" fill="white"/>
<rect x="3935.18" y="4983.25" width="573.023" height="16.5072" fill="white"/>
<rect x="3936.39" y="5011.19" width="573.023" height="16.5072" fill="white"/>
<rect x="3936.39" y="5039.12" width="573.023" height="16.5072" fill="white"/>
<rect x="3936.39" y="5067.05" width="573.023" height="16.5073" fill="white"/>
<rect x="3936.39" y="5067.05" width="573.023" height="44.4426" fill="#113049"/>
<rect x="3937.95" y="5111.2" width="572.61" height="27.9309" fill="#113049"/>
<rect x="3937.59" y="5150.86" width="573.023" height="16.5071" fill="white"/>
<rect x="3937.59" y="5178.8" width="573.023" height="16.5071" fill="white"/>
<rect x="3937.59" y="5206.73" width="573.023" height="16.5071" fill="white"/>
<rect x="3938.8" y="5234.66" width="573.023" height="16.5073" fill="white"/>
<rect x="3938.8" y="5262.6" width="573.023" height="16.5073" fill="white"/>
<rect x="3938.8" y="5290.54" width="573.023" height="16.5071" fill="white"/>
<rect x="3938.8" y="5318.48" width="573.023" height="16.5073" fill="white"/>
<rect x="3940.02" y="5346.41" width="573.023" height="16.5073" fill="white"/>
<rect x="3940.02" y="5374.34" width="573.023" height="16.5071" fill="white"/>
<rect x="3940.02" y="5402.28" width="573.023" height="16.5071" fill="white"/>
<rect x="3940.02" y="5430.21" width="573.023" height="16.5071" fill="white"/>
<rect x="3941.23" y="5458.15" width="573.023" height="16.5073" fill="white"/>
<rect x="3941.23" y="5486.09" width="573.023" height="16.5073" fill="white"/>
<rect x="3941.23" y="5514.02" width="573.023" height="16.5073" fill="white"/>
<rect x="3941.23" y="5541.95" width="573.023" height="16.5071" fill="white"/>
<rect x="4149.16" y="4338.2" width="132.98" height="1232.96" fill="#113049"/>
<path d="M3860.23 5341.33V5618.14H3834.23L3860.23 5341.33Z" fill="#113049"/>
<path d="M4569.85 5341.33V5618.14H4595.84L4569.85 5341.33Z" fill="#113049"/>
<path d="M5313.62 5621.4V4057.52H5369V4019.83H5331.57V3972.98H5405.4V3948.74H5499.74V3972.98H5555.62V4019.83H5521.78V4057.52H5581.77V4111.38H5632.53V4169H5695.59V4227.16H5758.66V5621.4H5313.62Z" fill="#113049"/>
<ellipse cx="5451.03" cy="3841.04" rx="121.512" ry="121.707" fill="#113049"/>
<path d="M1274.68 4060.17V5619.49H1752.62V5570.96V5127.03V4060.17H1697.33V3998.12H1605.68V3956.75H1392.84V3998.12H1310.28V4060.17H1274.68Z" fill="#113049"/>
<path d="M157.477 4060.17V5619.49H635.414V5570.96V5127.03V4060.17H580.122V3998.12H488.473V3956.75H275.635V3998.12H193.076V4060.17H157.477Z" fill="#113049"/>
<rect x="635.414" y="5122.26" width="639.27" height="176.616" fill="#113049"/>
<rect x="635.414" y="5300.47" width="96.9509" height="321.41" fill="#D9D9D9"/>
<rect x="635.414" y="5298.88" width="96.9509" height="321.41" fill="#113049"/>
<rect x="1177.73" y="5298.88" width="96.9509" height="321.41" fill="#113049"/>
<path d="M732.367 5298.88H1177.74V5620.28C1177.74 5620.28 1177.74 5360.13 961.111 5358.54C744.486 5356.95 732.367 5620.28 732.367 5620.28V5298.88Z" fill="#113049"/>
<path d="M6459.29 4565.64L6324.12 5621.42H6747.37L6607.32 4565.64L6599.79 4355.23H6463.72L6459.29 4565.64Z" fill="#113049"/>
<rect x="6502.28" y="4417.6" width="31.0234" height="38.1721" fill="white"/>
<rect x="6537.73" y="4417.6" width="31.0239" height="38.1721" fill="white"/>
<rect x="6502.28" y="4460.43" width="31.0234" height="38.1721" fill="white"/>
<rect x="6537.73" y="4460.43" width="31.0239" height="38.1721" fill="white"/>
<path d="M6251.84 4583.4V5621.68H5830.39V4583.4H5924.73V4500.47H6161.09V4583.4H6251.84Z" fill="#113049"/>
<path d="M7292.95 4671.9V5621.41H7625.3V4583.33H7368.51V4671.9H7292.95Z" fill="#113049" stroke="#113049" stroke-width="8"/>
<path d="M7697.14 5621.6V4936.18H8129.42V4743.98V4699.69V4628.95H8232.09V4699.69H8129.42V4743.98V4936.18H8561.71V5621.6H7697.14Z" fill="#113049"/>
<path d="M8129.42 4936.18H7697.14V5621.6H8561.71V4936.18H8129.42ZM8129.42 4936.18V4743.98V4699.69M8129.42 4699.69V4628.95H8232.09V4699.69H8129.42Z" stroke="#113049" stroke-width="8"/>
<path d="M6819.61 4723.91V5621.09H7220.96V4723.91H6819.61Z" fill="#113049" stroke="#113049" stroke-width="8"/>
<path d="M2463.78 5102.84C2115.98 5102.84 1874.96 5446.51 1824.78 5621.43C1824.78 5621.43 2040.57 5511.7 2171.52 5511.7C2290.11 5511.7 2463.78 5621.43 2463.78 5621.43C2463.78 5621.43 2645.6 5529.79 2773.35 5511.7C2935.51 5488.73 3117.14 5621.43 3117.14 5621.43C3037.64 5450.62 2855.8 5102.84 2463.78 5102.84Z" fill="#113049"/>
<rect x="621" y="5606" width="132" height="45" fill="#113049"/>
</svg>
