<svg width="24" height="23" viewBox="0 0 24 23" fill="none" xmlns="http://www.w3.org/2000/svg">
<mask id="path-1-inside-1_34_326" fill="white">
<path d="M12 22.2927C11.654 22.2927 11.3191 22.2481 11.04 22.1476C6.77581 20.6853 0 15.4946 0 7.82574C0 3.91877 3.15907 0.748535 7.04372 0.748535C8.93023 0.748535 10.694 1.48528 12 2.80249C13.306 1.48528 15.0698 0.748535 16.9563 0.748535C20.8409 0.748535 24 3.92993 24 7.82574C24 15.5057 17.2242 20.6853 12.96 22.1476C12.6809 22.2481 12.346 22.2927 12 22.2927ZM7.04372 2.42295C4.08558 2.42295 1.67442 4.84528 1.67442 7.82574C1.67442 15.4499 9.00837 19.6918 11.587 20.5737C11.7879 20.6406 12.2233 20.6406 12.4242 20.5737C14.9916 19.6918 22.3367 15.4611 22.3367 7.82574C22.3367 4.84528 19.9256 2.42295 16.9674 2.42295C15.2707 2.42295 13.6967 3.21551 12.6809 4.58854C12.3684 5.01272 11.654 5.01272 11.3414 4.58854C10.3033 3.20435 8.74047 2.42295 7.04372 2.42295Z"/>
</mask>
<path d="M12 22.2927C11.654 22.2927 11.3191 22.2481 11.04 22.1476C6.77581 20.6853 0 15.4946 0 7.82574C0 3.91877 3.15907 0.748535 7.04372 0.748535C8.93023 0.748535 10.694 1.48528 12 2.80249C13.306 1.48528 15.0698 0.748535 16.9563 0.748535C20.8409 0.748535 24 3.92993 24 7.82574C24 15.5057 17.2242 20.6853 12.96 22.1476C12.6809 22.2481 12.346 22.2927 12 22.2927ZM7.04372 2.42295C4.08558 2.42295 1.67442 4.84528 1.67442 7.82574C1.67442 15.4499 9.00837 19.6918 11.587 20.5737C11.7879 20.6406 12.2233 20.6406 12.4242 20.5737C14.9916 19.6918 22.3367 15.4611 22.3367 7.82574C22.3367 4.84528 19.9256 2.42295 16.9674 2.42295C15.2707 2.42295 13.6967 3.21551 12.6809 4.58854C12.3684 5.01272 11.654 5.01272 11.3414 4.58854C10.3033 3.20435 8.74047 2.42295 7.04372 2.42295Z" fill="#848282"/>
<path d="M11.04 22.1476L11.7174 20.2658L11.7031 20.2607L11.6888 20.2558L11.04 22.1476ZM12 2.80249L10.5798 4.21067L12 5.64303L13.4202 4.21067L12 2.80249ZM12.96 22.1476L12.3112 20.2558L12.2969 20.2607L12.2826 20.2658L12.96 22.1476ZM11.587 20.5737L10.9398 22.466L10.9471 22.4686L10.9545 22.471L11.587 20.5737ZM12.4242 20.5737L13.0566 22.471L13.0653 22.4681L13.0739 22.4652L12.4242 20.5737ZM12.6809 4.58854L11.0731 3.39902L11.0708 3.40214L12.6809 4.58854ZM11.3414 4.58854L12.9515 3.40214L12.9465 3.39531L12.9414 3.38854L11.3414 4.58854ZM12 20.2927C11.9111 20.2927 11.8387 20.2869 11.7849 20.279C11.7296 20.2709 11.7092 20.2629 11.7174 20.2658L10.3626 24.0294C10.9229 24.2311 11.5026 24.2927 12 24.2927V20.2927ZM11.6888 20.2558C9.87686 19.6344 7.40083 18.1593 5.3979 15.9656C3.41303 13.7917 2 11.0369 2 7.82574H-2C-2 12.2834 -0.0251264 15.9584 2.44396 18.6627C4.89499 21.3471 7.93896 23.1985 10.3912 24.0395L11.6888 20.2558ZM2 7.82574C2 5.01509 4.27186 2.74854 7.04372 2.74854V-1.25146C2.04628 -1.25146 -2 2.82244 -2 7.82574H2ZM7.04372 2.74854C8.40037 2.74854 9.65175 3.27471 10.5798 4.21067L13.4202 1.39431C11.7362 -0.304154 9.4601 -1.25146 7.04372 -1.25146V2.74854ZM13.4202 4.21067C14.3482 3.27471 15.5996 2.74854 16.9563 2.74854V-1.25146C14.5399 -1.25146 12.2638 -0.304154 10.5798 1.39431L13.4202 4.21067ZM16.9563 2.74854C19.7261 2.74854 22 5.0242 22 7.82574H26C26 2.83566 21.9558 -1.25146 16.9563 -1.25146V2.74854ZM22 7.82574C22 11.043 20.5866 13.7975 18.6025 15.9693C16.6002 18.1611 14.1242 19.634 12.3112 20.2558L13.6088 24.0395C16.06 23.1989 19.104 21.3508 21.5557 18.6673C24.0255 15.9637 26 12.2885 26 7.82574H22ZM12.2826 20.2658C12.2908 20.2629 12.2705 20.2709 12.2151 20.279C12.1613 20.2869 12.0889 20.2927 12 20.2927V24.2927C12.4974 24.2927 13.0771 24.2311 13.6374 24.0294L12.2826 20.2658ZM7.04372 0.422954C2.97024 0.422954 -0.325581 3.75151 -0.325581 7.82574H3.67442C3.67442 5.93904 5.20093 4.42295 7.04372 4.42295V0.422954ZM-0.325581 7.82574C-0.325581 12.3335 1.85427 15.7828 4.26015 18.1528C6.64102 20.4983 9.38174 21.9332 10.9398 22.466L12.2342 18.6813C11.2136 18.3322 8.99805 17.2053 7.06729 15.3033C5.16154 13.4259 3.67442 10.9422 3.67442 7.82574H-0.325581ZM10.9545 22.471C11.3591 22.6059 11.7715 22.6239 12.0056 22.6239C12.2397 22.6239 12.6521 22.6059 13.0566 22.471L11.7917 18.6763C11.8648 18.6519 11.9201 18.6397 11.9481 18.6342C11.9784 18.6281 11.9986 18.6256 12.0065 18.6246C12.0208 18.623 12.0189 18.6239 12.0056 18.6239C11.9923 18.6239 11.9904 18.623 12.0046 18.6246C12.0126 18.6256 12.0327 18.6281 12.0631 18.6342C12.0911 18.6397 12.1464 18.6519 12.2194 18.6763L10.9545 22.471ZM13.0739 22.4652C14.6231 21.9331 17.3631 20.5022 19.7459 18.1579C22.1536 15.7892 24.3367 12.3396 24.3367 7.82574H20.3367C20.3367 10.9472 18.8473 13.4307 16.9406 15.3066C15.009 17.2069 12.7928 18.3324 11.7745 18.6821L13.0739 22.4652ZM24.3367 7.82574C24.3367 3.75151 21.0409 0.422954 16.9674 0.422954V4.42295C18.8102 4.42295 20.3367 5.93904 20.3367 7.82574H24.3367ZM16.9674 0.422954C14.635 0.422954 12.4651 1.51751 11.0731 3.39902L14.2887 5.77805C14.9284 4.91351 15.9064 4.42295 16.9674 4.42295V0.422954ZM11.0708 3.40214C11.3572 3.01349 11.7519 2.90667 12.0112 2.90667C12.2704 2.90667 12.6651 3.01349 12.9515 3.40214L9.73128 5.77493C10.3302 6.58776 11.2384 6.90667 12.0112 6.90667C12.7839 6.90667 13.6921 6.58776 14.291 5.77493L11.0708 3.40214ZM12.9414 3.38854C11.5296 1.5062 9.37677 0.422954 7.04372 0.422954V4.42295C8.10416 4.42295 9.07687 4.9025 9.7414 5.78854L12.9414 3.38854Z" fill="#113049" mask="url(#path-1-inside-1_34_326)"/>
</svg>
