<svg width="23" height="23" viewBox="0 0 23 23" fill="none" xmlns="http://www.w3.org/2000/svg">
<path d="M13.5456 1.72398L13.5461 1.72436L20.1633 6.35411C20.1634 6.35415 20.1634 6.35418 20.1635 6.35422C20.6337 6.68346 21.1031 7.24354 21.4558 7.91912C21.8085 8.59476 22 9.30057 22 9.87748V17.6667C22 20.044 20.0696 21.9744 17.6923 21.9744H5.3077C2.93322 21.9744 1 20.0353 1 17.6552V9.72813C1 9.19551 1.17267 8.52594 1.49455 7.8722C1.81616 7.21902 2.24416 6.66817 2.67148 6.33487L2.67169 6.3347L8.4247 1.84482C8.42513 1.84449 8.42556 1.84415 8.426 1.84382C9.81442 0.769066 12.1013 0.712074 13.5456 1.72398ZM11.5 19.2515C11.7879 19.2515 12.2189 19.2199 12.6067 18.9965C12.8179 18.8748 13.0203 18.6935 13.1643 18.4383C13.3071 18.1851 13.3616 17.9135 13.3616 17.6552L13.3616 14.9324C13.3616 14.5158 13.215 13.9563 13.0251 13.5178C12.9263 13.2898 12.7866 13.0249 12.5947 12.7996C12.4246 12.5998 12.0583 12.2515 11.5 12.2515C10.9418 12.2515 10.5754 12.5998 10.4053 12.7995C10.2134 13.0249 10.0737 13.2898 9.97493 13.5178C9.78501 13.9563 9.63834 14.5158 9.63834 14.9324L9.63835 17.6552C9.63835 17.9135 9.69292 18.1852 9.83573 18.4384C9.97965 18.6935 10.1821 18.8748 10.3933 18.9965C10.7811 19.2198 11.212 19.2515 11.5 19.2515Z" stroke="#113049" stroke-width="2"/>
</svg>
