<svg width="3839" height="2950" viewBox="0 0 3839 2950" fill="none" xmlns="http://www.w3.org/2000/svg">
<path d="M811.074 917.365C811.074 917.365 296.608 217.401 153.506 62.3302C10.4054 -92.7406 874.156 585.891 874.156 585.891C874.156 585.891 2283.98 210.38 1820.07 379.492C1356.16 548.604 811.074 917.365 811.074 917.365Z" fill="#113049"/>
<path d="M3071.38 1207.34C3071.38 1207.34 2713.39 720.277 2613.81 612.372C2514.24 504.467 3115.27 976.689 3115.27 976.689C3115.27 976.689 4096.29 715.392 3773.48 833.068C3450.67 950.744 3071.38 1207.34 3071.38 1207.34Z" fill="#113049"/>
<path d="M1881.64 2736.1C1881.64 2736.1 1279.28 1916.54 1111.73 1734.98C944.179 1553.41 1955.5 2347.99 1955.5 2347.99C1955.5 2347.99 3606.2 1908.32 3063.02 2106.33C2519.85 2304.33 1881.64 2736.1 1881.64 2736.1Z" fill="#113049"/>
</svg>
