<svg width="19" height="24" viewBox="0 0 19 24" fill="none" xmlns="http://www.w3.org/2000/svg">
<path d="M9.0848 11.1862C6.0013 11.1862 3.4917 8.6766 3.4917 5.5931C3.4917 2.5096 6.0013 0 9.0848 0C12.1683 0 14.6779 2.5096 14.6779 5.5931C14.6779 8.6766 12.1683 11.1862 9.0848 11.1862ZM9.0848 1.45907C6.80865 1.45907 4.95077 3.31695 4.95077 5.5931C4.95077 7.86925 6.80865 9.72713 9.0848 9.72713C11.361 9.72713 13.2188 7.86925 13.2188 5.5931C13.2188 3.31695 11.361 1.45907 9.0848 1.45907Z" fill="#113049" stroke="#113049" stroke-width="50"/>
<path d="M17.4407 20.9136C17.0419 20.9136 16.7112 20.5828 16.7112 20.184C16.7112 16.8282 13.2873 14.1046 9.08518 14.1046C4.88301 14.1046 1.45907 16.8282 1.45907 20.184C1.45907 20.5828 1.12835 20.9136 0.729535 20.9136C0.330723 20.9136 0 20.5828 0 20.184C0 19.1349 0.260058 18.1347 0.729535 17.2258C2.11862 14.5364 5.34107 12.6455 9.08518 12.6455C12.8292 12.6455 16.0516 14.5364 17.4407 17.2257C17.9102 18.1347 18.1702 19.1348 18.1702 20.184C18.1702 20.5828 17.8395 20.9136 17.4407 20.9136Z" fill="#113049" stroke="#113049" stroke-width="50"/>
<path d="M17.4407 19.2526C17.0419 19.2526 16.7112 19.5834 16.7112 19.9822C16.7112 22.9584 12.5242 22.8591 9.97058 22.7986C9.64484 22.7908 9.34568 22.7837 9.08518 22.7837C8.82468 22.7837 8.52552 22.7908 8.19979 22.7986C5.64615 22.8591 1.45907 22.9584 1.45907 19.9822C1.45907 19.5834 1.12835 19.2526 0.729535 19.2526C0.330723 19.2526 0 19.5834 0 19.9822C0 21.0313 0.260058 21.8068 0.729535 22.3799C2.06107 24.0053 5.07721 24.0027 8.62261 23.9997C8.77584 23.9996 8.93006 23.9995 9.08518 23.9995C9.2403 23.9995 9.39452 23.9996 9.54775 23.9997C13.0931 24.0027 16.1092 24.0053 17.4407 22.3799C17.9102 21.8068 18.1702 21.0314 18.1702 19.9822C18.1702 19.5834 17.8395 19.2526 17.4407 19.2526Z" fill="#113049" stroke="#113049" stroke-width="50"/>
</svg>
